# xmcd
#
# Track frame offsets: 
#        150
#        14200
#        28725
#        43527
#        58692
#        73330
#        86065
#        99130
#        110750
#        125942
#        140502
#        153287
#        163950
#        176717
#        193175
#        207565
#        221775
#        234190
#        247650
#        264320
#        279072
#        290452
#        305302
#
# Disc length: 4193 seconds
#
# Revision: 4
# Processed by: cddbd v1.5.2PL0 Copyright (c) Steve Scherf et al.
# Submitted via: ExactAudioCopy v1.0b1
#
DISCID=5b105f17
DTITLE=Various Artist - American Popular Song Disc 3
DYEAR=1984
DGENRE=Pop
TTITLE0=Judy Garland - The Boy Next Door
TTITLE1=Dinah Shore - Something To Remember You By
TTITLE2=Jo Stafford - Alone Together
TTITLE3=Benny Goodman Quintet With Peggy Mann - Ev'ry Time We Say Good
TTITLE3=bye
TTITLE4=Frank Sinatra - I Only Have Eyes For You
TTITLE5=Billy Eckstine - A Cottage For Sale
TTITLE6=Dick Haymes - You Are Too Beautiful
TTITLE7=Perry Como - They Say It's Wonderful
TTITLE8=Buddy Clark - I'll Get By
TTITLE9=Margaret Whiting - Little Girl Blue
TTITLE10=Gene Kelly - Our Love Is Here To Stay
TTITLE11=Fred Astaire - By Myself
TTITLE12=Judy Garland - Get Happy
TTITLE13=Judy Garland - The Man That Got Away
TTITLE14=Mabel Mercer - Hello Young Lovers
TTITLE15=Jeri Southern - Dancing On The Ceiling
TTITLE16=Peggy Lee - Easy Living
TTITLE17=Rosemary Clooney - Sophisticated Lady
TTITLE18=Nat King Cole - There Will Never Be Another You
TTITLE19=Nat King Cole - Star Dust
TTITLE20=Sarah Vaughan - 'S Wonderful
TTITLE21=Sarah Vaughan - Autumn In New York
TTITLE22=Ella Fitzgerald - What Is This Thing Called Love
EXTD=
EXTT0=
EXTT1=
EXTT2=
EXTT3=With The Benny Goodman Quintet
EXTT4=
EXTT5=
EXTT6=
EXTT7=
EXTT8=
EXTT9=
EXTT10=
EXTT11=
EXTT12=
EXTT13=
EXTT14=
EXTT15=
EXTT16=
EXTT17=
EXTT18=
EXTT19=
EXTT20=
EXTT21=
EXTT22=
PLAYORDER=
